<mxfile host="Electron" modified="2024-04-28T14:56:28.641Z" agent="Mozilla/5.0 (Macintosh; Intel Mac OS X 10_15_7) AppleWebKit/537.36 (KHTML, like Gecko) draw.io/22.1.2 Chrome/114.0.5735.289 Electron/25.9.4 Safari/537.36" etag="UNtOwdtKmHCOObrqP4FD" version="22.1.2" type="device">
  <diagram name="第 1 页" id="FL7CgeFYHwgxJUEBkI2f">
    <mxGraphModel dx="406" dy="683" grid="1" gridSize="10" guides="1" tooltips="1" connect="1" arrows="1" fold="1" page="1" pageScale="1" pageWidth="827" pageHeight="1169" math="0" shadow="0">
      <root>
        <mxCell id="0" />
        <mxCell id="1" parent="0" />
        <mxCell id="FEr3-VHXnkz5icKKlv_Z-29" style="edgeStyle=orthogonalEdgeStyle;rounded=0;orthogonalLoop=1;jettySize=auto;html=1;entryX=0.5;entryY=0;entryDx=0;entryDy=0;fontFamily=Times New Roman;fontStyle=1;labelBackgroundColor=none;strokeColor=#457B9D;fontColor=default;" edge="1" parent="1" source="FEr3-VHXnkz5icKKlv_Z-1" target="FEr3-VHXnkz5icKKlv_Z-4">
          <mxGeometry relative="1" as="geometry" />
        </mxCell>
        <mxCell id="FEr3-VHXnkz5icKKlv_Z-1" value="开始" style="rounded=1;whiteSpace=wrap;html=1;fontFamily=Times New Roman;fontStyle=1;labelBackgroundColor=none;fillColor=#A8DADC;strokeColor=#457B9D;fontColor=#1D3557;" vertex="1" parent="1">
          <mxGeometry x="90" y="40" width="120" height="60" as="geometry" />
        </mxCell>
        <mxCell id="FEr3-VHXnkz5icKKlv_Z-30" style="edgeStyle=orthogonalEdgeStyle;rounded=0;orthogonalLoop=1;jettySize=auto;html=1;exitX=0.5;exitY=1;exitDx=0;exitDy=0;entryX=0.5;entryY=0;entryDx=0;entryDy=0;fontFamily=Times New Roman;fontStyle=1;labelBackgroundColor=none;strokeColor=#457B9D;fontColor=default;" edge="1" parent="1" source="FEr3-VHXnkz5icKKlv_Z-4" target="FEr3-VHXnkz5icKKlv_Z-6">
          <mxGeometry relative="1" as="geometry" />
        </mxCell>
        <mxCell id="FEr3-VHXnkz5icKKlv_Z-4" value="设置方式命令字" style="rounded=1;whiteSpace=wrap;html=1;fontFamily=Times New Roman;fontStyle=1;labelBackgroundColor=none;fillColor=#A8DADC;strokeColor=#457B9D;fontColor=#1D3557;" vertex="1" parent="1">
          <mxGeometry x="90" y="140" width="120" height="60" as="geometry" />
        </mxCell>
        <mxCell id="FEr3-VHXnkz5icKKlv_Z-31" style="edgeStyle=orthogonalEdgeStyle;rounded=0;orthogonalLoop=1;jettySize=auto;html=1;exitX=1;exitY=0.5;exitDx=0;exitDy=0;entryX=0;entryY=0.5;entryDx=0;entryDy=0;fontFamily=Times New Roman;fontStyle=1;labelBackgroundColor=none;strokeColor=#457B9D;fontColor=default;" edge="1" parent="1" source="FEr3-VHXnkz5icKKlv_Z-6" target="FEr3-VHXnkz5icKKlv_Z-8">
          <mxGeometry relative="1" as="geometry" />
        </mxCell>
        <mxCell id="FEr3-VHXnkz5icKKlv_Z-6" value="获取开关初始状态" style="rounded=1;whiteSpace=wrap;html=1;fontFamily=Times New Roman;fontStyle=1;labelBackgroundColor=none;fillColor=#A8DADC;strokeColor=#457B9D;fontColor=#1D3557;" vertex="1" parent="1">
          <mxGeometry x="90" y="240" width="120" height="60" as="geometry" />
        </mxCell>
        <mxCell id="FEr3-VHXnkz5icKKlv_Z-33" style="edgeStyle=orthogonalEdgeStyle;rounded=0;orthogonalLoop=1;jettySize=auto;html=1;exitX=1;exitY=0.5;exitDx=0;exitDy=0;entryX=0;entryY=0.5;entryDx=0;entryDy=0;fontFamily=Times New Roman;fontStyle=1;labelBackgroundColor=none;strokeColor=#457B9D;fontColor=default;" edge="1" parent="1" source="FEr3-VHXnkz5icKKlv_Z-8" target="FEr3-VHXnkz5icKKlv_Z-12">
          <mxGeometry relative="1" as="geometry" />
        </mxCell>
        <mxCell id="FEr3-VHXnkz5icKKlv_Z-38" value="N" style="edgeLabel;html=1;align=center;verticalAlign=middle;resizable=0;points=[];fontFamily=Times New Roman;fontStyle=1;labelBackgroundColor=none;fontColor=#1D3557;" vertex="1" connectable="0" parent="FEr3-VHXnkz5icKKlv_Z-33">
          <mxGeometry x="-0.2" relative="1" as="geometry">
            <mxPoint y="1" as="offset" />
          </mxGeometry>
        </mxCell>
        <mxCell id="FEr3-VHXnkz5icKKlv_Z-34" style="edgeStyle=orthogonalEdgeStyle;rounded=0;orthogonalLoop=1;jettySize=auto;html=1;exitX=0.5;exitY=0;exitDx=0;exitDy=0;entryX=0;entryY=0.5;entryDx=0;entryDy=0;fontFamily=Times New Roman;fontStyle=1;labelBackgroundColor=none;strokeColor=#457B9D;fontColor=default;" edge="1" parent="1" source="FEr3-VHXnkz5icKKlv_Z-8" target="FEr3-VHXnkz5icKKlv_Z-14">
          <mxGeometry relative="1" as="geometry" />
        </mxCell>
        <mxCell id="FEr3-VHXnkz5icKKlv_Z-39" value="Y" style="edgeLabel;html=1;align=center;verticalAlign=middle;resizable=0;points=[];fontFamily=Times New Roman;fontStyle=1;labelBackgroundColor=none;fontColor=#1D3557;" vertex="1" connectable="0" parent="FEr3-VHXnkz5icKKlv_Z-34">
          <mxGeometry x="-0.573" y="1" relative="1" as="geometry">
            <mxPoint as="offset" />
          </mxGeometry>
        </mxCell>
        <mxCell id="FEr3-VHXnkz5icKKlv_Z-8" value="比较新旧开关状态&lt;br&gt;是否相同？" style="rhombus;whiteSpace=wrap;html=1;fontFamily=Times New Roman;fontStyle=1;labelBackgroundColor=none;fillColor=#A8DADC;strokeColor=#457B9D;fontColor=#1D3557;" vertex="1" parent="1">
          <mxGeometry x="250" y="230" width="150" height="80" as="geometry" />
        </mxCell>
        <mxCell id="FEr3-VHXnkz5icKKlv_Z-40" style="edgeStyle=orthogonalEdgeStyle;rounded=0;orthogonalLoop=1;jettySize=auto;html=1;entryX=0.5;entryY=1;entryDx=0;entryDy=0;fontFamily=Times New Roman;fontStyle=1;labelBackgroundColor=none;strokeColor=#457B9D;fontColor=default;" edge="1" parent="1" source="FEr3-VHXnkz5icKKlv_Z-12" target="FEr3-VHXnkz5icKKlv_Z-14">
          <mxGeometry relative="1" as="geometry" />
        </mxCell>
        <mxCell id="FEr3-VHXnkz5icKKlv_Z-12" value="流水状态设置为新的开关状态" style="rounded=1;whiteSpace=wrap;html=1;fontFamily=Times New Roman;fontStyle=1;labelBackgroundColor=none;fillColor=#A8DADC;strokeColor=#457B9D;fontColor=#1D3557;" vertex="1" parent="1">
          <mxGeometry x="460" y="240" width="120" height="60" as="geometry" />
        </mxCell>
        <mxCell id="FEr3-VHXnkz5icKKlv_Z-41" style="edgeStyle=orthogonalEdgeStyle;rounded=0;orthogonalLoop=1;jettySize=auto;html=1;exitX=1;exitY=0.5;exitDx=0;exitDy=0;entryX=0;entryY=0.5;entryDx=0;entryDy=0;fontFamily=Times New Roman;fontStyle=1;labelBackgroundColor=none;strokeColor=#457B9D;fontColor=default;" edge="1" parent="1" source="FEr3-VHXnkz5icKKlv_Z-14" target="FEr3-VHXnkz5icKKlv_Z-16">
          <mxGeometry relative="1" as="geometry" />
        </mxCell>
        <mxCell id="FEr3-VHXnkz5icKKlv_Z-14" value="点亮LED灯" style="rounded=1;whiteSpace=wrap;html=1;fontFamily=Times New Roman;fontStyle=1;labelBackgroundColor=none;fillColor=#A8DADC;strokeColor=#457B9D;fontColor=#1D3557;" vertex="1" parent="1">
          <mxGeometry x="460" y="140" width="120" height="60" as="geometry" />
        </mxCell>
        <mxCell id="FEr3-VHXnkz5icKKlv_Z-42" style="edgeStyle=orthogonalEdgeStyle;rounded=0;orthogonalLoop=1;jettySize=auto;html=1;exitX=0.5;exitY=1;exitDx=0;exitDy=0;entryX=0.5;entryY=0;entryDx=0;entryDy=0;fontFamily=Times New Roman;fontStyle=1;labelBackgroundColor=none;strokeColor=#457B9D;fontColor=default;" edge="1" parent="1" source="FEr3-VHXnkz5icKKlv_Z-16" target="FEr3-VHXnkz5icKKlv_Z-18">
          <mxGeometry relative="1" as="geometry" />
        </mxCell>
        <mxCell id="FEr3-VHXnkz5icKKlv_Z-16" value="流水灯状态右移" style="rounded=1;whiteSpace=wrap;html=1;fontFamily=Times New Roman;fontStyle=1;labelBackgroundColor=none;fillColor=#A8DADC;strokeColor=#457B9D;fontColor=#1D3557;" vertex="1" parent="1">
          <mxGeometry x="620" y="140" width="120" height="60" as="geometry" />
        </mxCell>
        <mxCell id="FEr3-VHXnkz5icKKlv_Z-43" style="edgeStyle=orthogonalEdgeStyle;rounded=0;orthogonalLoop=1;jettySize=auto;html=1;entryX=0.5;entryY=1;entryDx=0;entryDy=0;fontFamily=Times New Roman;fontStyle=1;labelBackgroundColor=none;strokeColor=#457B9D;fontColor=default;" edge="1" parent="1" source="FEr3-VHXnkz5icKKlv_Z-18" target="FEr3-VHXnkz5icKKlv_Z-8">
          <mxGeometry relative="1" as="geometry">
            <Array as="points">
              <mxPoint x="680" y="340" />
              <mxPoint x="325" y="340" />
            </Array>
          </mxGeometry>
        </mxCell>
        <mxCell id="FEr3-VHXnkz5icKKlv_Z-18" value="调用延时子程序" style="rounded=1;whiteSpace=wrap;html=1;fontFamily=Times New Roman;fontStyle=1;labelBackgroundColor=none;fillColor=#A8DADC;strokeColor=#457B9D;fontColor=#1D3557;" vertex="1" parent="1">
          <mxGeometry x="620" y="240" width="120" height="60" as="geometry" />
        </mxCell>
      </root>
    </mxGraphModel>
  </diagram>
</mxfile>
